
        <svg xmlns="http://www.w3.org/2000/svg" xmlns:xlink="http://www.w3.org/1999/xlink" version="1.1" width="3170.9706872878214" 
        height="2227.9617687194245" viewBox="0 0 3170.9706872878214 2227.9617687194245">
			
			<g transform="scale(8.548534364391077) translate(10, 10)">
				<defs id="SvgjsDefs6440"></defs><g id="SvgjsG6441" featureKey="rootContainer" transform="matrix(1.7238725423812866,0,0,1.7238725423812866,0,0)" fill="#f6f5f5"><g xmlns="http://www.w3.org/2000/svg"><path d="M177.937 21.107c-7.555-2.331-63.43-11.68-76.135-12.183-12.706.503-68.578 9.852-76.136 12.183-.273 15.579-15.28 48.684-15.28 48.684s15.008 33.106 15.28 48.685c7.558 2.33 63.43 11.68 76.136 12.183 12.705-.503 68.58-9.854 76.135-12.183.273-15.579 15.28-48.685 15.28-48.685 0-.001-15.007-33.106-15.28-48.684z"></path><path d="M202.322 67.019v-.001c-4.206-9.257-15.17-35.968-15.385-48.239l-.085-4.588-3.973-1.228C175.252 10.612 115.756.551 102.006.01l-.202-.01-.211.01C87.828.552 28.345 10.613 20.726 12.965l-3.979 1.227-.081 4.588c-.21 12.217-11.175 38.961-15.382 48.235L.023 69.793l.001.002-.024.054.164.253 1.12 2.463c4.207 9.275 15.172 36.021 15.383 48.237l.081 4.589 3.978 1.228c7.621 2.351 67.104 12.411 80.859 12.953l.219.012.192-.012c13.763-.541 73.258-10.602 80.883-12.954l3.972-1.227.085-4.589c.214-12.266 11.178-38.98 15.385-48.24l1.254-2.771-1.253-2.772zm-5.767 9.136c-4.281 10.137-13.221 32.679-13.435 44.571l-.023 1.544-1.267.391c-7.527 2.319-66.349 12.257-79.963 12.797l-.049.002-.075-.001c-13.623-.541-72.443-10.479-79.97-12.797l-1.268-.392-.026-1.545c-.215-12.279-9.748-35.933-13.837-45.533a241.11 241.11 0 0 0-1.938-4.446l-.434-.955.432-.951c.07-.153.839-1.865 1.939-4.449 4.089-9.6 13.622-33.255 13.837-45.533l.026-1.545 1.268-.391c7.534-2.32 66.356-12.258 79.971-12.798l.031-.003.083.003c13.615.54 72.44 10.477 79.973 12.797l1.267.392.023 1.546c.213 11.888 9.154 34.431 13.435 44.569h-.007l.411.964a232.956 232.956 0 0 0 1.938 4.445l.435.955-.435.953c-.066.142-.822 1.831-1.938 4.448l-.406.964h.002z"></path></g></g><g id="SvgjsG6442" featureKey="monogramFeature-0" transform="matrix(2.25,0,0,2.25,110.86897015571594,6.220601558685303)" fill="#048998"><path d="M51.826 40.897999999999996 l-4.4531 19.072 l-14.648 0 l3.8379 -16.26 c-1.4941 2.2559 -2.9883 4.4824 -4.3652 6.7383 l-10.342 0 l-1.2598 -6.7969 l-3.8379 16.318 l-14.033 0 l4.3359 -19.072 l-2.6367 0 l5.6543 -24.551 l15.557 0 l3.1934 15.615 c3.4277 -5.1563 6.8555 -10.371 10.371 -15.615 l15.557 0 l-5.6543 24.551 l2.7246 0 z"></path></g><g id="SvgjsG6443" featureKey="nameFeature-0" transform="matrix(1.2306177616119385,0,0,1.2306177616119385,74.99999735938081,147.11863576740055)" fill="#048998"><path d="M11.6 11.36 l6.68 0 l0 28.56 l-3.76 0 l0 -22.6 l-3.56 22.68 l-1.48 0 l-0.36 -0.08 l-0.32 0.08 l-1.48 0 l-3.52 -22.68 l0 22.6 l-3.8 0 l0 -28.56 l6.72 0 l2.44 16.16 z M25.68 40.04 c-3 0 -5.4 -2.44 -5.4 -5.4 l0 -17.96 c0 -2.96 2.4 -5.36 5.4 -5.36 c2.96 0 5.36 2.4 5.36 5.36 l0 17.96 c0 2.96 -2.4 5.4 -5.36 5.4 z M25.68 15.120000000000001 c-0.88 0 -1.56 0.72 -1.56 1.56 l0 17.96 c0 0.88 0.68 1.56 1.56 1.56 c0.84 0 1.56 -0.68 1.56 -1.56 l0 -17.96 c0 -0.84 -0.72 -1.56 -1.56 -1.56 z M42.36 23.04 c0.88 0.88 1.44 2.08 1.44 3.4 l0 8.76 c0 2.64 -2.16 4.8 -4.8 4.8 l-5.92 0 l-0.04 -28.48 l5.28 0 c2.92 0.12 4.64 2.92 4.6 5.56 l-0.04 3.96 c0 0.72 -0.2 1.4 -0.52 2 z M39 36.16 c0.56 0 1 -0.44 1 -0.96 l-0.04 -8.76 c0 -0.56 -0.44 -0.96 -0.96 -0.96 l-2.12 0 l0 10.68 l2.12 0 z M36.839999999999996 15.32 l0 6.32 l1.6 0 c0.32 0 0.64 -0.28 0.64 -0.64 l0.04 -3.96 c0 -0.8 -0.4 -1.68 -0.96 -1.72 l-1.32 0 z M49.599999999999994 11.36 l0 28.48 l-3.8 0 l0 -28.48 l3.8 0 z M55.35999999999999 36.24 l5.52 0 l0 3.76 l-9.28 0 l0 -28.72 l3.76 0 l0 24.96 z M72.19999999999999 24.92 l-5.52 0 l0 11.28 l5.56 0 l0 3.8 l-9.36 0 l0 -28.56 l9.36 0 l0 3.8 l-5.56 0 l0 5.88 l5.52 0 l0 3.8 z M86.03999999999999 34 l0 5.96 l-3.8 0 l0 -28.52 l5.92 0 c2.64 0 4.76 2.16 4.76 4.8 l0 13 c0 2.64 -2.12 4.76 -4.76 4.76 l-2.12 0 z M86.03999999999999 15.239999999999998 l0 14.96 l2.12 0 c0.56 0 0.96 -0.4 0.96 -0.96 l0 -13 c0 -0.56 -0.4 -1 -0.96 -1 l-2.12 0 z M98.67999999999999 36.24 l5.52 0 l0 3.76 l-9.28 0 l0 -28.72 l3.76 0 l0 24.96 z M116.19999999999999 40 l-1.44 -9.88 l-4.04 0 l-1.32 9.88 l-3.84 0 l4.32 -28.6 l5.16 0 l5 28.6 l-3.84 0 z M111.23999999999998 26.32 l2.96 0 l-1.52 -10.4 z M131.32 33.44 l0.16 -22.16 l3.84 0 l-0.24 28.88 l-5.96 0 l-3.24 -22.36 l0 22.36 l-3.84 0 l0 -28.88 l6.2 0 z M146.64 24.92 l-5.52 0 l0 11.28 l5.56 0 l0 3.8 l-9.36 0 l0 -28.56 l9.36 0 l0 3.8 l-5.56 0 l0 5.88 l5.52 0 l0 3.8 z M162.52 11.36 l0 3.84 l-4.76 0 l0 24.84 l-3.84 0 l0 -24.84 l-5.24 0 l0 -3.84 l13.84 0 z"></path></g>
			</g>
		</svg>
	